<svg id="Calque_1" data-name="Calque 1" xmlns="http://www.w3.org/2000/svg" viewBox="0 0 120 120"><defs><style>.cls-1{fill:#f7f6f5;}</style></defs><title>logo</title><path class="cls-1" d="M11.19,40.41,12.5,41.8c.55.58,1.21,1.33,2,2.25s1.72,2.07,2.78,3.42,2.27,3,3.64,4.9l.64.92a6,6,0,0,1,.38.59,3.34,3.34,0,0,1,.19.36.87.87,0,0,1,.05.28.4.4,0,0,0,.1.25,1.05,1.05,0,0,0,.27.24,2.48,2.48,0,0,0,.31.18.72.72,0,0,0,.27.08c.12,0,.34-.2.68-.6s.73-.92,1.19-1.57,1-1.39,1.52-2.24,1.09-1.72,1.64-2.63,1.09-1.8,1.6-2.68,1-1.7,1.38-2.44.73-1.36,1-1.88a3.35,3.35,0,0,0,.36-1,.64.64,0,0,0-.25-.41,3.87,3.87,0,0,0-.59-.42,5.32,5.32,0,0,0-.69-.32,1.55,1.55,0,0,0-.52-.14.42.42,0,0,0-.33.14,1.24,1.24,0,0,0-.17.64,10.82,10.82,0,0,1-.52,2.37,24,24,0,0,1-1,2.57c-.39.87-.81,1.72-1.27,2.55s-.94,1.61-1.4,2.3-.9,1.31-1.31,1.84a8.66,8.66,0,0,1-1,1.15A22.78,22.78,0,0,0,22,50.56l-2.11-2.67-2.41-3c-.82-1-1.58-2-2.26-2.94S14,40.19,13.53,39.47a3.64,3.64,0,0,1-.66-1.55q0-.63-.45-.63a1.45,1.45,0,0,0-.48.18,6.11,6.11,0,0,0-.74.45,4.73,4.73,0,0,0-.67.58.9.9,0,0,0-.29.55,1,1,0,0,0,.23.54A10.67,10.67,0,0,0,11.19,40.41Z"/><path class="cls-1" d="M35.43,52.53a6.58,6.58,0,0,0,2.18,1.14,7.82,7.82,0,0,0,2.4.39,10,10,0,0,0,2.9-.43,7.87,7.87,0,0,0,2.48-1.27,6.39,6.39,0,0,0,1.74-2,5.87,5.87,0,0,0,.66-2.82,7.21,7.21,0,0,0-.52-2.87,5.6,5.6,0,0,0-1.37-2,5.54,5.54,0,0,0-2-1.15,7.82,7.82,0,0,0-2.43-.38,10,10,0,0,0-3.76.64,7.6,7.6,0,0,0-2.55,1.65,6.23,6.23,0,0,0-1.44,2.24,6.92,6.92,0,0,0-.45,2.4,5.48,5.48,0,0,0,.61,2.62A5.93,5.93,0,0,0,35.43,52.53Zm.48-6.87a4.89,4.89,0,0,1,1-1.63,5,5,0,0,1,1.67-1.12,5.7,5.7,0,0,1,2.24-.42,5.63,5.63,0,0,1,1.79.28,4,4,0,0,1,1.54.89,4.48,4.48,0,0,1,1.09,1.62,6.54,6.54,0,0,1,.41,2.5,5,5,0,0,1-.49,2.37,4.18,4.18,0,0,1-1.25,1.46,4.59,4.59,0,0,1-1.58.72,6.7,6.7,0,0,1-1.51.19,5,5,0,0,1-4.24-2,5.16,5.16,0,0,1-.82-1.62,5.11,5.11,0,0,1-.22-1.25A5.73,5.73,0,0,1,35.91,45.66Z"/><path class="cls-1" d="M47,40.8l1.2,1.37c.48.55,1,1.22,1.65,2,.91,1.19,1.65,2.16,2.19,2.89s1,1.33,1.23,1.78a6,6,0,0,1,.55,1,2.37,2.37,0,0,1,.12.73,5.54,5.54,0,0,1-.28,1.73A8.79,8.79,0,0,1,53,54a5.55,5.55,0,0,1-.91,1.2,2,2,0,0,1-.95.56,1.11,1.11,0,0,0-.59.23.49.49,0,0,0-.11.31c0,.1.08.23.26.39a5,5,0,0,0,.62.49,4.18,4.18,0,0,0,.77.43,1.73,1.73,0,0,0,.65.18c.2,0,.4-.16.61-.47A9.69,9.69,0,0,0,54,56.06c.23-.49.47-1,.72-1.64s.48-1.19.7-1.75l.61-1.51a6,6,0,0,1,.46-1L62,41.08a6.86,6.86,0,0,1,.57-.8l.44-.5c.11-.13.21-.23.27-.31a.4.4,0,0,0,.09-.24.57.57,0,0,0-.28-.45,3.28,3.28,0,0,0-.67-.36,7.24,7.24,0,0,0-.79-.25,2.65,2.65,0,0,0-.62-.1.64.64,0,0,0-.5.16,1.35,1.35,0,0,0-.14.76,4.41,4.41,0,0,1-.48,1.66c-.32.71-.73,1.5-1.22,2.37s-1,1.81-1.6,2.79-1.12,2-1.63,2.92a13.31,13.31,0,0,0-1.28-2.17c-.6-.84-1.23-1.72-1.89-2.61S51,42.18,50.42,41.33a11.65,11.65,0,0,1-1.24-2.13,3.2,3.2,0,0,1-.17-.64c0-.21-.07-.4-.1-.57a1.38,1.38,0,0,0-.14-.42.34.34,0,0,0-.32-.16,1.55,1.55,0,0,0-.64.21,5.33,5.33,0,0,0-1.48,1.09.89.89,0,0,0-.29.52,1.21,1.21,0,0,0,.26.64A10.89,10.89,0,0,0,47,40.8Z"/><path class="cls-1" d="M68,43.75c-.3.7-.65,1.47-1.05,2.3s-.8,1.66-1.21,2.48-.84,1.6-1.25,2.35-.79,1.39-1.13,1.93a10.7,10.7,0,0,1-.65.95,1.07,1.07,0,0,0-.29.66.66.66,0,0,0,.48.6,3.25,3.25,0,0,0,1.28.21c.26,0,.4-.12.42-.35a2.2,2.2,0,0,1,.17-.67l1.42-3.05A2.57,2.57,0,0,1,67.13,50a3.15,3.15,0,0,1,1.62-.34h7.5A54.71,54.71,0,0,1,80,54.77a2.47,2.47,0,0,1,.23.46.31.31,0,0,0,.31.24h.85a.65.65,0,0,0,.39-.17,3.12,3.12,0,0,0,.46-.44,4.36,4.36,0,0,0,.38-.53.91.91,0,0,0,.15-.4.63.63,0,0,0-.11-.44.74.74,0,0,0-.3-.19L82,53.12a1.42,1.42,0,0,1-.54-.42q-1.5-1.65-2.76-3.09c-.84-1-1.72-2-2.63-3.21S74.11,43.85,73,42.28s-2.43-3.5-4-5.79c-.21-.33-.41-.66-.61-1a2.72,2.72,0,0,1-.35-.7l-.24-.66a.82.82,0,0,0-.26-.37.77.77,0,0,0-.38-.16,5,5,0,0,0-.62,0,1.12,1.12,0,0,0-.5.14,3.74,3.74,0,0,0-.58.33,5.45,5.45,0,0,0-.5.39.5.5,0,0,0-.21.33.6.6,0,0,0,.29.49,4.34,4.34,0,0,1,.68.74l2.32,2.91a3.49,3.49,0,0,1,1,1.89,4.22,4.22,0,0,1-.28,1.11C68.56,42.44,68.31,43.05,68,43.75Zm2.38-1.65,4.44,5.62a.94.94,0,0,1-.34.12,3.88,3.88,0,0,1-.68.09c-.3,0-.7,0-1.19,0l-1.84,0L69.2,48c-.38,0-.66,0-.85,0a.57.57,0,0,1-.35-.12.36.36,0,0,1-.08-.23,1,1,0,0,1,.12-.42c.07-.17.23-.52.48-1.06Z"/><path class="cls-1" d="M84.32,52.24a6.87,6.87,0,0,0,2.26,1.89,7.48,7.48,0,0,0,3.63.78,8.24,8.24,0,0,0,1-.06l1-.12.78-.12a3.24,3.24,0,0,1,.47-.06.87.87,0,0,1,1,.78c.08.51.16.93.24,1.25a3,3,0,0,0,.24.73.82.82,0,0,0,.25.34.57.57,0,0,0,.32.09,1.12,1.12,0,0,0,.76-.18.83.83,0,0,0,.17-.59,17.78,17.78,0,0,0-.14-2.11A28.27,28.27,0,0,1,96,51.62c0-.63,0-1.13,0-1.48a2.76,2.76,0,0,0-.1-.77.5.5,0,0,0-.2-.32,1,1,0,0,0-.33-.06,2.29,2.29,0,0,0-.92.12.56.56,0,0,0-.29.39l-.26,1.79a1.53,1.53,0,0,1-.36.72,3.24,3.24,0,0,1-.84.66,5.34,5.34,0,0,1-1.25.49,6,6,0,0,1-1.58.19,7.92,7.92,0,0,1-1.86-.2,3.72,3.72,0,0,1-1.52-.77,3.49,3.49,0,0,1-1-1.56,7.77,7.77,0,0,1-.37-2.63,8.39,8.39,0,0,1,.61-3,10.93,10.93,0,0,1,1.66-2.94A9.77,9.77,0,0,1,89.84,40a5.44,5.44,0,0,1,3-.88,2.9,2.9,0,0,1,.71.08,1.65,1.65,0,0,1,.61.34c.46.4.78.66.94.77a.77.77,0,0,0,.46.18,1.14,1.14,0,0,0,.42-.1,3.14,3.14,0,0,0,.51-.27,2.11,2.11,0,0,0,.45-.39.66.66,0,0,0,.19-.43,1.26,1.26,0,0,0-1-1.18,8,8,0,0,0-2.78-.37,11.56,11.56,0,0,0-4.74.88,9.76,9.76,0,0,0-3.28,2.28,8.86,8.86,0,0,0-1.91,3.2,11.39,11.39,0,0,0-.61,3.64,8.47,8.47,0,0,0,.34,2.15A7.09,7.09,0,0,0,84.32,52.24Z"/><path class="cls-1" d="M100.22,51.78a6.14,6.14,0,0,0,.75,1.6,4.7,4.7,0,0,0,1.36,1.34,7.42,7.42,0,0,0,2.14.92,12.16,12.16,0,0,0,3.11.34,4.48,4.48,0,0,0,1.7-.22c.32-.14.48-.29.48-.44a.47.47,0,0,0-.24-.47,2.76,2.76,0,0,0-1-.11q-3.3,0-4.8-1.66a7.22,7.22,0,0,1-1.5-5l2.19,0c.82,0,1.71,0,2.67-.13a.84.84,0,0,0,.4-.13,4.18,4.18,0,0,0,.93-.71c.12-.11.18-.2.18-.26,0-.22-.21-.33-.61-.33h-4.32a2.39,2.39,0,0,0-.84.13,2.12,2.12,0,0,0-.6.31,14.12,14.12,0,0,1,.54-3.38,6.5,6.5,0,0,1,1-2.08,3,3,0,0,1,1.31-1,4,4,0,0,1,1.49-.28h1.89a.54.54,0,0,0,.61-.6.65.65,0,0,0-.48-.65,6.14,6.14,0,0,0-1.83-.18,7.35,7.35,0,0,0-2.61.48A5.43,5.43,0,0,0,102,40.86a8.81,8.81,0,0,0-1.56,3,15.52,15.52,0,0,0-.59,4.61c0,.51,0,1.05.07,1.62A7.63,7.63,0,0,0,100.22,51.78Z"/><path class="cls-1" d="M42.76,75.13a3.48,3.48,0,0,1,.67.88,4.81,4.81,0,0,1,.36.79c.08.24.15.43.21.59s.13.23.21.23a1.09,1.09,0,0,0,.37-.14,4.7,4.7,0,0,0,.55-.33,3.67,3.67,0,0,0,.51-.44.68.68,0,0,0,.22-.45c0-.45,0-.87,0-1.27s0-.77,0-1.12c0-1.14,0-2.12.12-2.93s.18-1.5.27-2,.19-1,.27-1.3a2.87,2.87,0,0,0,.13-.69.67.67,0,0,0-.13-.41.53.53,0,0,0-.46-.17,5.06,5.06,0,0,0-.54,0,3.4,3.4,0,0,0-.57.08,1.47,1.47,0,0,0-.46.18.4.4,0,0,0-.2.3,1.46,1.46,0,0,0,.07.4,6.45,6.45,0,0,1,.15.67c0,.28.09.62.14,1a11.74,11.74,0,0,1,.08,1.42c0,.69,0,1.35-.09,2s-.15,1.33-.28,2c-.23-.17-.66-.53-1.29-1.09s-1.38-1.23-2.24-2S39,69.67,38,68.71s-2-1.92-2.93-2.89a1.75,1.75,0,0,0-.33-.28.55.55,0,0,0-.28-.07.82.82,0,0,0-.26,0,1.17,1.17,0,0,0-.33.19l-.89.61c-.18.11-.27.21-.27.31s.11.31.33.38l.74.24a2,2,0,0,1,.74.45,1.34,1.34,0,0,1,.33,1c0,.26,0,.53,0,.78s0,.52,0,.79l-.29,5.16a4.17,4.17,0,0,1-.2,1,3.19,3.19,0,0,1-.31.64,4.07,4.07,0,0,1-.28.39.56.56,0,0,0-.12.33c0,.19.15.29.46.29a3,3,0,0,0,.58-.06l.9-.19a.49.49,0,0,0,.36-.24.79.79,0,0,0,.09-.35q0-.24,0-.72t0-.93c0-.35,0-.78,0-1.28s0-1.06,0-1.65,0-1.18.06-1.81.08-1.22.13-1.8c.24.23.61.56,1.09,1s1,.89,1.63,1.43l1.92,1.74Q41.8,74.17,42.76,75.13Z"/><path class="cls-1" d="M58.55,71.28a2.38,2.38,0,0,0-.62.18.27.27,0,0,0-.16.24s.08.13.24.25a3.14,3.14,0,0,0,.58.3c.23.09.47.17.72.25a2.45,2.45,0,0,0,.63.11,1.66,1.66,0,0,0,.77-.31,10.22,10.22,0,0,0,2-1.56c1.3-1.32,1.23-3.85.65-5.27a3.28,3.28,0,0,0-1.22-1.4,6.74,6.74,0,0,0-4.24-.83c-.28,0-.69.06-1.22.17a11.47,11.47,0,0,0-1.55.44,7.63,7.63,0,0,0-1.31.62c-.38.23-.57.48-.57.74s.16.35.48.49a.51.51,0,0,1,.27.22,1.58,1.58,0,0,1,.09.31,25.35,25.35,0,0,1,.25,2.94c0,1.33.15,5.53.11,6.92A31.38,31.38,0,0,1,54,80.37a3.5,3.5,0,0,1-.12.64c-.06.15-.1.28-.13.37a.59.59,0,0,0-.05.25c0,.27.35.35.71.35a1.48,1.48,0,0,0,1.42-.71,18.46,18.46,0,0,0,.62-5.67c0-2.29,0-5.15,0-5.15,0-.36,0-.78,0-1.24s0-.92.08-1.39.07-.92.11-1.36.09-.8.13-1.12A6.58,6.58,0,0,1,58,64.85a5,5,0,0,1,1.32-.17,2,2,0,0,1,1.25.39,2.89,2.89,0,0,1,.8.94,4.08,4.08,0,0,1,.4,1.14,5.34,5.34,0,0,1,.12,1,2.71,2.71,0,0,1-.91,2A4.57,4.57,0,0,1,58.55,71.28Z"/><path class="cls-1" d="M69.37,75.27l7.06.49a44.19,44.19,0,0,1,3.18,4.29,2.53,2.53,0,0,1,.18.37c0,.14,0,.31.19.41a1.7,1.7,0,0,0,1.27-.25,5.23,5.23,0,0,0,.45-.31,3,3,0,0,0,.4-.39.74.74,0,0,0,.18-.31.45.45,0,0,0-.07-.35.73.73,0,0,0-.27-.17l-.4-.17a1.31,1.31,0,0,1-.47-.36c-.86-.93-1.65-1.8-2.37-2.6s-1.46-1.71-2.23-2.69-1.63-2.13-2.56-3.44a25.76,25.76,0,0,1-2-3.63q-.11-.34-.18-.54c0-.13-.2-.46-.49-.52a2.64,2.64,0,0,0-1.13.08,4.45,4.45,0,0,0-.57.22,5.4,5.4,0,0,0-.49.27c-.14.09-.22.18-.23.25a.46.46,0,0,0,.23.4,3.25,3.25,0,0,1,.59.62s.8.92.68,1.44a4.06,4.06,0,0,1-.35.85c-.22.4-.5.87-.83,1.4S68.4,71.74,68,72.36s-2.47,3.42-3.79,5.14c-2.06,2.68-4.83,6-5.06,6.12a.77.77,0,0,0-.42.42c-.06.19,0,.38.28.58a3.66,3.66,0,0,0,1.1.5c.24.08.4,0,.47-.14a1.42,1.42,0,0,1,.32-.45s1.61-2,3.41-4.57c1.14-1.64,2.59-3.64,2.59-3.64a2.25,2.25,0,0,1,1-.89A3.57,3.57,0,0,1,69.37,75.27Zm-.62-1.65a.78.78,0,0,1,.14-.32l.53-.79,2.06-3,3.76,4.69a1.59,1.59,0,0,1-.33.08l-.65,0c-.28,0-.66,0-1.12,0s-1,0-1.73-.1-1.14-.08-1.49-.12-.62-.06-.79-.09a.59.59,0,0,1-.33-.12A.24.24,0,0,1,68.75,73.62Z"/><path class="cls-1" d="M95.39,67.39c.15-.19.32-.33.43-.45l.28-.29a.33.33,0,0,0,.1-.22.54.54,0,0,0-.29-.42,3.15,3.15,0,0,0-.69-.33,7.15,7.15,0,0,0-.79-.23,2.78,2.78,0,0,0-.64-.1.66.66,0,0,0-.5.15,1.09,1.09,0,0,0-.15.7,3.71,3.71,0,0,1-.36,1.51c-.34.77-1,2.07-1.91,3.77s-2.2,3.65-2.47,4.1a15.43,15.43,0,0,0-1.57-2.37c-.6-.79-1.24-1.59-1.91-2.42s-1.31-1.63-1.9-2.42a10,10,0,0,1-1.25-2,2.29,2.29,0,0,1-.18-.6c0-.19-.07-.36-.1-.52a1,1,0,0,0-.15-.39.35.35,0,0,0-.32-.15,1.7,1.7,0,0,0-.65.2,5.47,5.47,0,0,0-.82.45,5.6,5.6,0,0,0-.68.55.84.84,0,0,0-.29.49,1,1,0,0,0,.26.59,8.86,8.86,0,0,0,.75.86l1.21,1.27q.74.75,1.68,1.86l2.23,2.68c.55.68,1,1.23,1.25,1.64A4,4,0,0,1,86.72,77a3.51,3.51,0,0,1-.37,1.57,25.3,25.3,0,0,1-3.21,4.11,30.19,30.19,0,0,1-3.39,3.14,4.83,4.83,0,0,1-1.2.8,2.05,2.05,0,0,1-1.07.22,1.17,1.17,0,0,0-.64,0,.41.41,0,0,0-.19.24.6.6,0,0,0,.15.42,5.34,5.34,0,0,0,.47.62,6.15,6.15,0,0,0,.64.61,1.89,1.89,0,0,0,.58.35.89.89,0,0,0,.72-.25,8.78,8.78,0,0,0,1-.87c.36-.37,3.47-2.5,8.82-9.69C91.87,74.46,94.69,68.25,95.39,67.39Z"/><path class="cls-1" d="M96.3,71.81a2.48,2.48,0,0,0,.41,1A13.06,13.06,0,0,0,97.59,74c.35.43.72.87,1.12,1.32s.78.89,1.13,1.32a13.06,13.06,0,0,1,.88,1.22,2.32,2.32,0,0,1,.41,1,1.17,1.17,0,0,1-.45,1,2.2,2.2,0,0,1-1.37.55,4.47,4.47,0,0,1-1.54-.07,3.38,3.38,0,0,0-1.09-.11.58.58,0,0,0-.29.13.42.42,0,0,0-.12.36,1.3,1.3,0,0,0,.11.41,2.32,2.32,0,0,0,.2.38.8.8,0,0,0,.43.2c.23.06.5.11.8.16a6.69,6.69,0,0,0,.9.09,4.63,4.63,0,0,0,.75,0,3.4,3.4,0,0,0,1.85-.65,4.52,4.52,0,0,0,1.07-1.18,3.72,3.72,0,0,0,.48-1.21,3.8,3.8,0,0,0,.09-.76,4.53,4.53,0,0,0-.75-2,21.21,21.21,0,0,0-1.41-2c-.51-.63-1-1.23-1.4-1.79a3,3,0,0,1-.69-1.42,1.91,1.91,0,0,1,.79-1.67,6,6,0,0,1,3-1,3.2,3.2,0,0,0,1.13-.26.61.61,0,0,0,.19-.61c0-.12-.13-.21-.35-.27a4.11,4.11,0,0,0-.77-.13,6.13,6.13,0,0,0-.86,0,5.47,5.47,0,0,0-.67,0,3.94,3.94,0,0,0-1.94.72,8.14,8.14,0,0,0-1.57,1.4,8,8,0,0,0-1,1.54A2.4,2.4,0,0,0,96.3,71.81Z"/><path class="cls-1" d="M31,80.22c.33-.15.49-.3.49-.44a.46.46,0,0,0-.24-.47,2.59,2.59,0,0,0-1-.11q-3.35,0-4.88-1.67a7.18,7.18,0,0,1-1.53-5l2.23,0c.83,0,1.74,0,2.72-.13a.87.87,0,0,0,.4-.13l.51-.34a2.74,2.74,0,0,0,.43-.37c.12-.12.18-.2.18-.26,0-.22-.2-.33-.61-.33H25.89l.05,0-2,.07a13,13,0,0,1,.52-3,6.5,6.5,0,0,1,1-2.08,3.14,3.14,0,0,1,1.33-1,4.37,4.37,0,0,1,1.51-.27h1.92a.54.54,0,0,0,.62-.61.65.65,0,0,0-.49-.65,6.21,6.21,0,0,0-1.85-.18,7.53,7.53,0,0,0-2.65.48,5.57,5.57,0,0,0-2.26,1.63,9,9,0,0,0-1.58,3,13.27,13.27,0,0,0-.51,2.78c-1,0-2,.1-3.06.17a2.15,2.15,0,0,0-.61.15c-.25.1-.5.22-.76.35s-.48.27-.66.39-.26.21-.26.27c0,.22.33.32.95.31l4.32-.09c0,.1,0,.19,0,.3,0,.51,0,1.06.07,1.63a7.72,7.72,0,0,0,.32,1.7,6.37,6.37,0,0,0,.77,1.6A4.66,4.66,0,0,0,24,79.17a7.45,7.45,0,0,0,2.18.92,12.4,12.4,0,0,0,3.15.35A4.78,4.78,0,0,0,31,80.22Z"/><path class="cls-1" d="M22.36,99.86a13.85,13.85,0,0,0-2.17-1.11A11.35,11.35,0,0,0,18.08,98a16.1,16.1,0,0,0,2.86-1.47c2.85-1.88,2.58-5.2.48-6.22a9.43,9.43,0,0,0-4.88-.68,16.1,16.1,0,0,0-3.64.73,20.11,20.11,0,0,0-3.29,1.43,3.71,3.71,0,0,0-.71.4.4.4,0,0,0-.14.26.48.48,0,0,0,.35.44l1,.41a1.48,1.48,0,0,1,.52.32,1.43,1.43,0,0,1,.32.77,10.32,10.32,0,0,1,.17,1.64c0,.71,0,1.71,0,3,0,.8,0,1.63-.07,2.47s-.11,1.64-.2,2.39-.18,1.42-.28,2a10.47,10.47,0,0,1-.27,1.35,1.17,1.17,0,0,1-.57.73q-.48.31-.48.57c0,.24.22.41.68.5a8.55,8.55,0,0,0,2.8.15,30.23,30.23,0,0,0,7.77-2A13.59,13.59,0,0,0,24.17,105a2.49,2.49,0,0,0,.84-1.8,2.63,2.63,0,0,0-.78-1.74A10.22,10.22,0,0,0,22.36,99.86Zm-7.81-8.65a8.72,8.72,0,0,1,4-.23,4.1,4.1,0,0,1,2.38,1.27,1.93,1.93,0,0,1,.28,1,3.39,3.39,0,0,1-1.91,2.91,17.86,17.86,0,0,1-2.48,1.16,13.79,13.79,0,0,1-1.68.44,5.46,5.46,0,0,1-1.71.18l-.12-5.61C13.3,91.86,14.16,91.34,14.55,91.21ZM21.83,105a7,7,0,0,1-2,1,28.12,28.12,0,0,1-5.88,1.18,1.33,1.33,0,0,1-.44-.06.53.53,0,0,1-.25-.33,2.79,2.79,0,0,1-.11-.79c0-.36.13-4.36.2-5a1.75,1.75,0,0,1,.73-1.14,3.11,3.11,0,0,1,.64-.33c.28-.1.55-.19.83-.26a4.84,4.84,0,0,1,3,.58,13.08,13.08,0,0,1,2,1.1,8.74,8.74,0,0,1,1.53,1.27,1.86,1.86,0,0,1,.62,1.23A1.81,1.81,0,0,1,21.83,105Z"/><path class="cls-1" d="M36.41,104.68a2.88,2.88,0,0,0-.9-.09q-3.18,0-4.62-1.35a5.22,5.22,0,0,1-1.45-4l2.11,0c.79,0,1.65,0,2.57-.1a.86.86,0,0,0,.39-.11,3.3,3.3,0,0,0,.47-.27,2.54,2.54,0,0,0,.42-.3c.11-.09.17-.16.17-.21s-.2-.26-.59-.26H30.83a2.73,2.73,0,0,0-.8.1,2.28,2.28,0,0,0-.59.25A10.31,10.31,0,0,1,30,95.55a5,5,0,0,1,1-1.68A3,3,0,0,1,32.2,93a4.59,4.59,0,0,1,1.43-.22h1.82c.39,0,.58-.17.58-.49s-.15-.43-.46-.53a7.35,7.35,0,0,0-1.76-.14,8.11,8.11,0,0,0-2.5.39,5.28,5.28,0,0,0-2.14,1.31,6.79,6.79,0,0,0-1.5,2.43,10.82,10.82,0,0,0-.56,3.73c0,.41,0,.85.06,1.31a5.12,5.12,0,0,0,.31,1.37,4.6,4.6,0,0,0,.72,1.29,4.21,4.21,0,0,0,1.31,1.08,7.48,7.48,0,0,0,2.06.74,13.41,13.41,0,0,0,3,.28,5,5,0,0,0,1.63-.18c.31-.11.46-.23.46-.35A.36.36,0,0,0,36.41,104.68Z"/><path class="cls-1" d="M63.42,98a10.14,10.14,0,0,0-1.56-1,6.75,6.75,0,0,0-1.4-.61,21.7,21.7,0,0,0,2-1.08,6,6,0,0,0,1.16-.93,2.42,2.42,0,0,0,.54-1,5.48,5.48,0,0,0,.12-1.24,2,2,0,0,0-1.28-2,7.77,7.77,0,0,0-3.77-.48,8.15,8.15,0,0,0-3.17,1.09c-.55.26-1,.46-1.21.61a1.85,1.85,0,0,0-.48.34.32.32,0,0,0-.09.21.39.39,0,0,0,.23.36l.66.34a1.06,1.06,0,0,1,.35.27,1.29,1.29,0,0,1,.22.63,11.56,11.56,0,0,1,.11,1.36c0,.59,0,1.41,0,2.47,0,.67,0,1.35-.05,2s-.07,1.36-.14,2-.12,1.18-.18,1.67a10.46,10.46,0,0,1-.19,1.12,1,1,0,0,1-.38.6c-.22.17-.32.33-.32.47s.15.34.46.42a9.14,9.14,0,0,0,1.88.12,5.56,5.56,0,0,0,.86-.15c.45-.1,1-.24,1.58-.43s1.25-.42,1.94-.7a10.39,10.39,0,0,0,1.88-1,6.3,6.3,0,0,0,1.41-1.23,2.31,2.31,0,0,0,.57-1.5,2.38,2.38,0,0,0-.52-1.43A7.12,7.12,0,0,0,63.42,98Zm-5.63-6.36a.84.84,0,0,1,.38-.81,1.88,1.88,0,0,1,.91-.21,4.08,4.08,0,0,1,1.26.18,3.93,3.93,0,0,1,.94.47,2,2,0,0,1,.58.65,1.4,1.4,0,0,1,.2.71,2.09,2.09,0,0,1-.43,1.15,8.07,8.07,0,0,1-2.15,2.11,1.91,1.91,0,0,1-.92.37.72.72,0,0,1-.42-.13,3.55,3.55,0,0,1-.35-.27Zm4.63,10.73a5,5,0,0,1-1.36.85,7.47,7.47,0,0,1-1.63.48,8.27,8.27,0,0,1-1.4.15.6.6,0,0,1-.29-.06.38.38,0,0,1-.17-.26,3.1,3.1,0,0,1-.08-.66c0-.3,0-.7,0-1.2,0-1.27,0-2.17.07-2.68a1.11,1.11,0,0,1,.73-1.25,3.1,3.1,0,0,1,.55-.21,7.71,7.71,0,0,1,1.37.62,8.31,8.31,0,0,1,1.34.91,6.76,6.76,0,0,1,1,1,1.7,1.7,0,0,1,.42,1A1.6,1.6,0,0,1,62.42,102.34Z"/><path class="cls-1" d="M79.13,105a4.08,4.08,0,0,0-1.07-.09c-2.49,0-4.31-.41-5.44-1.23a4.28,4.28,0,0,1-1.71-3.7l2.49,0q1.39,0,3-.09a1.27,1.27,0,0,0,.45-.1,5.38,5.38,0,0,0,.56-.25,3,3,0,0,0,.49-.28c.14-.08.2-.15.2-.19s-.23-.24-.69-.24h-4.9a4.35,4.35,0,0,0-.94.09,3.27,3.27,0,0,0-.69.23,7.37,7.37,0,0,1,.62-2.51A4.47,4.47,0,0,1,72.67,95a3.79,3.79,0,0,1,1.49-.77,7.24,7.24,0,0,1,1.69-.2H78q.69,0,.69-.45c0-.23-.18-.39-.55-.48A10.12,10.12,0,0,0,76.06,93a12,12,0,0,0-3,.36,6.68,6.68,0,0,0-2.53,1.21,6.35,6.35,0,0,0-1.76,2.23,6.27,6.27,0,0,0-.46,4.59,6.2,6.2,0,0,0,5.06,4.17,23,23,0,0,0,3.52.25,7.65,7.65,0,0,0,1.92-.16q.54-.17.54-.33A.33.33,0,0,0,79.13,105Z"/><path class="cls-1" d="M74.25,89.9a4,4,0,0,1-1.45-1.44.58.58,0,0,0-.4-.24,3.89,3.89,0,0,0-.76-.06,1.07,1.07,0,0,0-.35.08c-.13.05-.26.12-.38.18a1.92,1.92,0,0,0-.31.23.35.35,0,0,0-.12.22c0,.14.17.33.53.59a8.16,8.16,0,0,0,1.23.72,14.41,14.41,0,0,0,1.41.62,3.55,3.55,0,0,0,1,.26,4.65,4.65,0,0,0,.58,0c.29,0,.43-.08.43-.15s-.09-.12-.29-.24Z"/><path class="cls-1" d="M98.11,102.83a5.82,5.82,0,0,1-2.52-.6l-1.26-.65c-.52-.26-1.84-1-2.6-1.37l-2-1.07c-.56-.3-.92-.48-1.08-.55s-.25-.13-.25-.19.06-.1.16-.14l.89-.28a8.39,8.39,0,0,0,1.2-.43,5.22,5.22,0,0,0,1.22-.72,3.52,3.52,0,0,0,.94-1.11,3.32,3.32,0,0,0,.36-1.6,2,2,0,0,0-.43-1.19,3.91,3.91,0,0,0-1.17-1.06,6.38,6.38,0,0,0-1.73-.76,7.93,7.93,0,0,0-2.18-.29,5.08,5.08,0,0,0-.76,0l-.56.09-2.67.6c-.42.09-.62.25-.62.47s.21.58.65.79c.08,0,.15.25.2.59s.09.73.12,1.17,0,.9.06,1.35,0,.83,0,1.12c0,.67,0,1.39,0,2.19s0,1.54-.08,2.26-.06,1.34-.08,1.87,0,.86,0,1a3.67,3.67,0,0,1-.14.84,3.74,3.74,0,0,1-.21.56l-.19.36a.5.5,0,0,0-.08.26c0,.1.09.2.25.3a2.78,2.78,0,0,0,.6.23c.24.06.48.12.72.16a4.31,4.31,0,0,0,.59.07,1.19,1.19,0,0,0,.6-.11.4.4,0,0,0,.17-.37,3,3,0,0,0,0-.47q0-.25-.09-.69T86,104.39c0-.45,0-1,0-1.75v-.71c0-.42,0-.84,0-1.27s0-.81.09-1.16a9.57,9.57,0,0,1,2.36.84q1.42.68,3.06,1.59c1.09.61,2.92,1.77,3.62,2.15a4,4,0,0,0,1.38.58,1.24,1.24,0,0,0,.54-.2,3.41,3.41,0,0,0,.55-.32,4.85,4.85,0,0,0,.62-.52c.17-.18.26-.31.26-.4a.34.34,0,0,0-.11-.28A.33.33,0,0,0,98.11,102.83ZM88,97.25l-1.13.45a1.82,1.82,0,0,1-.5.13.59.59,0,0,1-.23,0,.29.29,0,0,1-.11-.27c0-.21,0-.5,0-.87s0-.79.08-1.23.09-.9.15-1.36a9.52,9.52,0,0,1,.25-1.29q0-.14.3-.24a4.73,4.73,0,0,1,.63-.18l.7-.12a3.79,3.79,0,0,1,.46,0,2.06,2.06,0,0,1,.35,0l.5.15a4.17,4.17,0,0,1,.47.19.69.69,0,0,1,.28.19,2.75,2.75,0,0,1,.32.44,1.21,1.21,0,0,1,.14.6,4.66,4.66,0,0,1-.34,1.75,2,2,0,0,1-.46.67,3.1,3.1,0,0,1-.61.47,5.91,5.91,0,0,1-.67.33Z"/><path class="cls-1" d="M111,105.66a3.73,3.73,0,0,0-1.09-.1c-2.55,0-4.79-.53-5.94-1.59a6,6,0,0,1-1.75-4.72l2.92,0c1,0,1.5,0,2.62-.12a1.3,1.3,0,0,0,.46-.13,4.85,4.85,0,0,0,.58-.32,6,6,0,0,0,.5-.35c.13-.11.2-.2.2-.25,0-.21-.24-.31-.7-.31,0,0-5.72,0-6.54,0a10.94,10.94,0,0,1,.59-2.83,6,6,0,0,1,1.34-2,4.35,4.35,0,0,1,1.73-1,5.52,5.52,0,0,1,1.72-.26h2.19c.47,0,.71-.2.71-.58s-.19-.5-.56-.61a8.27,8.27,0,0,0-2.12-.17,10.23,10.23,0,0,0-3,.45,6.33,6.33,0,0,0-2.58,1.55,7.92,7.92,0,0,0-1.8,2.85,10.19,10.19,0,0,0-.59,2.63c-1.11,0-2.26.09-3.5.16a2.28,2.28,0,0,0-.69.14q-.42.13-.87.33a7.25,7.25,0,0,0-.74.37c-.21.11-.3.2-.3.25,0,.21.37.31,1.08.3l4.93-.09c0,.1,0,.19,0,.29,0,.48,0,1,.08,1.54a6.25,6.25,0,0,0,.37,1.61,5.37,5.37,0,0,0,.87,1.51,5.16,5.16,0,0,0,1.58,1.27,9.65,9.65,0,0,0,2.48.88,17.6,17.6,0,0,0,3.6.32,6.31,6.31,0,0,0,2-.21c.37-.14.56-.28.56-.42A.42.42,0,0,0,111,105.66Z"/><path class="cls-1" d="M61.65,111.41a10.59,10.59,0,0,1-3.22-1.26,62.2,62.2,0,0,1-7.78-5.73c-3-2.46-4.92-4.33-5.4-4.77a7,7,0,0,1-.7-.73l.76-.22A12,12,0,0,0,47.4,98a3.55,3.55,0,0,0,1.54-1.33,3.4,3.4,0,0,0,.34-3.42,4.62,4.62,0,0,0-2.74-1.77,11.82,11.82,0,0,0-3.08-.12,22.15,22.15,0,0,0-3,.64c-.41.09-.62.24-.62.47s.22.57.65.78c.08.06.15.25.2.59s.09.73.12,1.18,0,.89.06,1.34,0,.83,0,1.13c0,.66,0,1.39,0,2.18s0,1.55-.08,2.26-.06,1.34-.08,1.87,0,.87,0,1a3.53,3.53,0,0,1-.13.83c-.08.23-.15.42-.22.57s-.14.26-.19.35a.54.54,0,0,0-.07.26q0,.17.24.3a2.35,2.35,0,0,0,.6.24c.24.06.48.11.73.15a3,3,0,0,0,.58.07,1.35,1.35,0,0,0,.6-.1.41.41,0,0,0,.17-.37,2.79,2.79,0,0,0,0-.47c0-.17-.06-.41-.09-.69s-.06-.66-.09-1.11-.05-1-.05-1.76v-.7c0-.42,0-.84,0-1.27s.06-.81.1-1.16c.18.12,3.37,3.26,6.78,6.12s7,5.47,7.4,5.74a6.34,6.34,0,0,0,1.69.92,2.78,2.78,0,0,0,.79,0c.35-.06.72-.13,1.09-.23a7.6,7.6,0,0,0,1-.31c.29-.11.45-.21.47-.29a.28.28,0,0,0-.06-.3A.5.5,0,0,0,61.65,111.41ZM42.77,97.08c0-.37,0-.78.08-1.23s.09-.89.15-1.35a9.37,9.37,0,0,1,.25-1.3c0-.09.12-.16.31-.23a12.17,12.17,0,0,1,1.32-.31c2.2-.26,2.59,1.25,2.66,1.54a2.86,2.86,0,0,1-.89,2.67,5.92,5.92,0,0,1-1.59.82,13.2,13.2,0,0,1-1.37.48,4.07,4.07,0,0,1-.6.1.48.48,0,0,1-.23,0c-.07,0-.1-.12-.1-.26S42.76,97.46,42.77,97.08Z"/><path class="cls-1" d="M111.77,14.68c-1-.6-2.33.52-3,.69s-1.07-.32-1.52-.41l-1,.14c-.22-.07-.47-.48-.69-.55a43.76,43.76,0,0,0-4.82-.42c-.2.07-.48.51-.69.55s-.65-.31-1.1-.13-.68.81-1.1,1c-1.18.42-2.4-.37-3.17-.55a2.65,2.65,0,0,0-1.1.14A8.55,8.55,0,0,1,91.67,15a17,17,0,0,0-2.21.41c-.87.17-1.89-.45-2.75-.41-1.16,0-4.87.86-5.37,1.51-.63,0-.71-.15-1-.55-1.86,0-2.92.63-4.41,1-1.12.25-1.93-.37-2.89-.14-.26.06-.75.52-1,.55-.38.06-.6-.33-.83-.41-.73-.26-1.57.14-2.2,0s-1.84-1-3.17-.55c-.2.06-.62.51-.83.55-.5.08-.79-.45-1.1-.55a20.28,20.28,0,0,0-2.34,0c-.1,0-.44.38-.55.41-.54.13-.87-.32-1.24-.41-1-.27-2.51.34-3.3.13-.14-.13-.28-.27-.41-.41a9.89,9.89,0,0,0-1.38-.14l-3,.14c-.16-.06-.49-.48-.69-.55-1.23-.4-4.87.47-5.37.28-.25-.1-.59-.59-1-.69-.8-.23-2,.22-2.62.14a9.09,9.09,0,0,0-3,.27,2.11,2.11,0,0,1-1.24-.27c-.79-.22-.95.41-1.65.27-.15,0-.41-.32-.69-.27s-.63.32-1,.27c-2.82-.38-5.2.28-7.43.69-1,.18-1.93-.47-3-.28a18.87,18.87,0,0,1-5.65-.13l-1.24.27c-.65-.15-1.44-.77-2.06-1-1-.31-1.76.32-2.62.14-.43-.1-.94-.62-1.38-.69-.69-.11-1,.31-1.51-.28A13.47,13.47,0,0,0,6,16.06a5.69,5.69,0,0,0-.27,1c.61.58,1.16,1.67,1.92,2.06,1.17.6,4.38-.24,5.78,0,2.34.39,5.28-.55,7.58-1a6.91,6.91,0,0,1,2.61.41l1.1-.41c.73.39,1.67-.17,2.62.13.1,0,.45.4.55.42.46.1,1.83-.58,2.75-.42s2-.34,3-.13c.35.07,2.13.57,2.21.55l.41-.42a2.43,2.43,0,0,1,2.06.28c.89.41,1.67,0,2.21.69.66-.08.6-.25,1.1-.42.28-.26.51.35.82.42.07,0,3.06,0,3.31,0,2.78-.52,6.14.36,9-.14.88-.15,2.58.38,3.16.28a24,24,0,0,1,6.75-.14l1.24-.14a19,19,0,0,1,4.54.41c1.08.33,2.54-.39,3.45-.13l.55.55,1.24-.14.41.27c.12,0,.48-.26.55-.27l1.1.14.41-.42c.63-.19.81.38,1.52.28a14.41,14.41,0,0,0,3-.28c.17-.06,3.56-.14,3.58-.13.2.05.36.41.82.27s1.27-.83,1.93-1,.84.44,1.24.55c0,0,3.32,0,3.44,0,.75-.14,2.08.16,2.75,0,.29-.07.66-.59,1-.69h3.72c.27-.08.72-.49,1-.55a5,5,0,0,1,2.34.55h1.65c.22.07.47.48.69.55.88.29,1.42-.41,1.93-.55,1.87-.52,3.83.36,5.23-.28l.27-1C113.47,16.33,113.06,15.12,111.77,14.68Z"/><path class="cls-1" d="M18.7,20.6a4.78,4.78,0,0,0-4.55,4.27,4.87,4.87,0,0,1,.69,1.52c.45.08,1-.2,1.52,0l.55.55a3.5,3.5,0,0,0,2.61-.42,1.62,1.62,0,0,0,1.79-1.23C22.42,23.57,19.43,21.2,18.7,20.6Zm-.37,1.67c-.16.23-.3.12-.3.12l0-.19s-.32-.18-.16-.34.36.05.36.05S18.5,22,18.33,22.27Z"/><path class="cls-1" d="M15.94,14c.93.41,1.32-.14,2.07.55.88,0,.89-.23,1.38-.55,0-1,.53-3,0-3.86,0-.79-.23-1.06-.83-1.24-1.7-1.21-4.38,1.51-4.41,3.17C14.67,12.68,15.2,13.67,15.94,14Z"/><path class="cls-1" d="M27.78,14c.71,0,.73-.43,1.38-.55l.69.13c1.07-.28,1.16-1.34,1.79-2.06-.11-.95-.49-1.32-.28-2.34L30.26,7.8c-.32-.24-.68-.28-1-.55l-1.79.14c-.42.86-1.42,1.52-1.65,2.34-.18.6.17,1.23-.14,2.06A8.5,8.5,0,0,1,27.78,14Z"/><path class="cls-1" d="M26.27,23.08c.17.22.24.61.41.83.1,2.72,5.38,2.69,6.06.55.41-1-.82-2.4-1.1-3.17C29.89,20.93,26.7,21.53,26.27,23.08Z"/><path class="cls-1" d="M41.83,13c.28.11.32.34.82.42a6.74,6.74,0,0,1,1.79-1.24c0-1.63-.66-3.43-1.93-3.86-.11-.09-.43-.18-.55-.27a3.23,3.23,0,0,0-2.89,3.3c.6.6,1.2,1.19,1.79,1.79Z"/><path class="cls-1" d="M42.51,21.29c-1.38.06-2.6,1.83-2.75,3.17l1.52,1.65c.43.31.66.25,1,.69.48-.07.57-.33.83-.41.47-.15.87.3,1.37,0l1.79-1.79a7,7,0,0,0-1.51-3.17A3.15,3.15,0,0,0,42.51,21.29Z"/><path class="cls-1" d="M56.15,15.51l1.37-.14,1.93-1.79c.06-2.38-.84-4-2.62-4.4a6,6,0,0,0-2.75,1.24c-.41.58-.27,1.09-.83,1.51v.55c.56.4.69,1.11,1.11,1.65Zm.55-4.27L57,11a1.62,1.62,0,0,1,.55.14c0,.34,0,.51-.14.68s0,.05-.27.14a1.71,1.71,0,0,0-.41-.27Z"/><path class="cls-1" d="M57.11,20.74c-2.2,0-2.24,1.13-3.44,2.07v1.51c1,1,2.12,2.19,4.13,2.2a3.53,3.53,0,0,1,1.65-1c.54-2.34-.16-3.14-1.1-4.68C58,20.72,57.51,20.48,57.11,20.74Zm.57,3.58c0,.08,0,.17-.08.25-.36-.07-.3-.15-.5-.34V24l.08-.09c.38,0,.4,0,.5.34C57.75,24.29,57.7,24.24,57.68,24.32Z"/><path class="cls-1" d="M65.92,14.27c.6.36,1.25-.11,1.79.28,1.41-.13,1.85-1.05,2.75-1.66A3.93,3.93,0,0,0,67.3,9a5.53,5.53,0,0,1-1.93,1.1,7,7,0,0,0-1,2.48C65,13.2,65.08,14,65.92,14.27Z"/><path class="cls-1" d="M68.81,22.26l-1.24.41a4.06,4.06,0,0,0-1.1,2.62l1.24,1.23a6.36,6.36,0,0,0,3.58-1c.29-.21.33-.42.55-.69a6.6,6.6,0,0,0-1.51-3.71C69.39,21.32,69.41,21.86,68.81,22.26Z"/><path class="cls-1" d="M79.27,14.41A10.15,10.15,0,0,0,83,12.62c0-1.66-1.11-2.29-1.79-3.3A2.74,2.74,0,0,1,80.1,9a3.2,3.2,0,0,0-3.17,2.75A16.33,16.33,0,0,1,79.27,14.41Z"/><path class="cls-1" d="M82.72,21.16c-.5-.08-1.09.12-1.38,0-1.42,0-1.62,1.06-2.48,1.65l-.14,1.37c.75.75,1.39,1.83,2.48,2.21a8.89,8.89,0,0,0,1.79.27l1.65-1.37a1.49,1.49,0,0,0-.13-.83C84.47,22.87,83.35,22.2,82.72,21.16Z"/><path class="cls-1" d="M91.67,13.45c2.38-.14,1.78-.4,3.3-1.52A5.32,5.32,0,0,1,95.11,10c-.22-.21-.22-.43-.42-.68-.5-.69-1.38-.68-1.65-1.66-2-.06-2.85.4-3.3,1.79v1c-.27.56-.84.49-1,1.37.6.55,1.2,1.1,1.79,1.66C91,13.67,91.25,13.47,91.67,13.45Z"/><path class="cls-1" d="M93.73,20.6a3.68,3.68,0,0,0-3.3,2.76c-.11.16-.11.23-.14.55.09.1.18.31.27.41a3.08,3.08,0,0,0,1.66,1.24c.34.2.43,0,.82,0l1.52.14a15.91,15.91,0,0,0,1.65-1c.1-.36.35-.69.41-1C97,22.07,94.53,21.31,93.73,20.6Z"/><path class="cls-1" d="M103.64,12.21l1.38.13c.59-.15,1.11-1,1.52-1.37a1.25,1.25,0,0,0-.14-.69c-.51-1.49-2.23-1.52-4-1.79a17.46,17.46,0,0,1-1.92,1.65c0,.32-.09.64-.14,1a10.25,10.25,0,0,0,2.75,1.37C103.53,12.64,103.29,12.33,103.64,12.21Z"/><path class="cls-1" d="M103.78,21.29c-.9.1-2.17,1.58-2.48,2.34.22.27.21.66.42,1l1,1c1.27,0,1.65.42,3,.41a5.18,5.18,0,0,1,1.79-1.1c.09-.23,0-.13.14-.27,0-2.16-.64-2.35-1.38-3.58C105.47,21.09,104.36,20.88,103.78,21.29Z"/></svg>